<svg width="32" height="32" viewBox="0 0 32 32" fill="none" xmlns="http://www.w3.org/2000/svg">
<path d="M3.17192 26.093L7.11607 11.1107C7.15943 10.946 7.30837 10.8312 7.47871 10.8312H25.8103M3.17192 26.093V26.093C3.08502 26.4231 3.33398 26.7461 3.6753 26.7461H25.6811C26.0295 26.7461 26.332 26.5062 26.4114 26.167L29.8923 11.2916C29.9473 11.0564 29.7687 10.8312 29.5271 10.8312H25.8103M3.17192 26.093V5.49609C3.17192 5.08188 3.5077 4.74609 3.92192 4.74609H10.6308C10.8132 4.74609 10.9893 4.81254 11.1262 4.93301L14.4255 7.83577C14.5624 7.95624 14.7385 8.02269 14.9209 8.02269H25.0603C25.4746 8.02269 25.8103 8.35848 25.8103 8.77269V10.8312" stroke="white" stroke-width="1.2"/>
</svg>
