<svg width="32" height="32" viewBox="0 0 32 32" fill="none" xmlns="http://www.w3.org/2000/svg">
<path d="M2.24023 24.747C2.24023 23.809 2.47223 22.9402 2.93623 22.1402C3.39959 21.3402 4.03159 20.7082 4.83191 20.2442C5.63191 19.7806 6.50103 19.5482 7.43863 19.5482H8.35575V21.3831H7.43863C6.82711 21.3831 6.26359 21.5338 5.74935 21.834C5.23447 22.1348 4.82647 22.5425 4.52631 23.057C4.22551 23.5716 4.07511 24.1348 4.07511 24.7463V25.6634H2.24023V24.747ZM4.83191 16.9117C4.31735 16.6113 3.90935 16.203 3.60887 15.6887C3.30839 15.1738 3.15799 14.6106 3.15799 13.9991C3.15799 13.3876 3.30839 12.8244 3.60887 12.3098C3.90935 11.7953 4.31735 11.3876 4.83191 11.0868C5.34647 10.7866 5.90967 10.6359 6.52119 10.6359C7.13271 10.6359 7.69591 10.7866 8.21047 11.0868C8.72503 11.3876 9.13303 11.7953 9.43351 12.3098C9.73399 12.8244 9.88471 13.3876 9.88471 13.9991C9.88471 14.6106 9.73399 15.1738 9.43351 15.6887C9.13303 16.203 8.72503 16.6113 8.21047 16.9117C7.69591 17.2122 7.13271 17.3623 6.52119 17.3623C5.90967 17.3623 5.34647 17.2122 4.83191 16.9117ZM7.59895 15.0766C7.89943 14.7761 8.05015 14.4167 8.05015 13.9988C8.05015 13.571 7.89943 13.209 7.59895 12.9134C7.29847 12.6177 6.93911 12.4695 6.52119 12.4695C6.10327 12.4695 5.74391 12.6177 5.44343 12.9134C5.14295 13.209 4.99255 13.571 4.99255 13.9988C4.99255 14.417 5.14295 14.7761 5.44343 15.0766C5.74391 15.3774 6.10327 15.5278 6.52119 15.5278C6.93911 15.5278 7.29847 15.3777 7.59895 15.0766ZM7.74423 24.747C7.74423 23.809 7.97623 22.9402 8.43991 22.1402C8.90359 21.3402 9.53559 20.7082 10.3359 20.2442C11.1359 19.7806 12.0047 19.5482 12.9426 19.5482H19.0578C19.9958 19.5482 20.8646 19.7806 21.6646 20.2442C22.4646 20.7082 23.0966 21.3402 23.5606 22.1402C24.0239 22.9402 24.2562 23.809 24.2562 24.747V25.6641H22.4217V24.747C22.4217 24.1354 22.271 23.5722 21.9705 23.0577C21.67 22.5431 21.262 22.1354 20.7474 21.8346C20.2329 21.5345 19.6697 21.3837 19.0582 21.3837H12.943C12.3314 21.3837 11.7679 21.5345 11.2534 21.8346C10.7388 22.1354 10.3308 22.5431 10.0303 23.0577C9.72983 23.5722 9.57943 24.1354 9.57943 24.747V25.6641H7.74423V24.747ZM13.2409 16.6666C12.3999 16.1726 11.7321 15.5047 11.2377 14.6641C10.7433 13.8228 10.4966 12.9034 10.4966 11.9041C10.4966 10.9054 10.7433 9.98535 11.2377 9.14471C11.7321 8.30375 12.3999 7.63623 13.2409 7.14151C14.0815 6.64743 15.0015 6.40039 16.0002 6.40039C16.9993 6.40039 17.919 6.64743 18.7599 7.14151C19.6009 7.63623 20.2684 8.30375 20.7628 9.14471C21.2572 9.98535 21.5042 10.9054 21.5042 11.9041C21.5042 12.9034 21.2572 13.8228 20.7628 14.6641C20.2684 15.5047 19.6009 16.1726 18.7599 16.6666C17.919 17.1614 16.9993 17.4084 16.0002 17.4084C15.0015 17.4084 14.0815 17.1614 13.2409 16.6666ZM17.8428 15.0845C18.4086 14.7585 18.854 14.3124 19.1807 13.7466C19.5068 13.1809 19.6697 12.5668 19.6697 11.9041C19.6697 11.2417 19.5065 10.6279 19.1807 10.0618C18.854 9.49607 18.4086 9.05031 17.8428 8.72391C17.277 8.39751 16.6626 8.23463 16.0002 8.23463C15.3378 8.23463 14.7238 8.39783 14.158 8.72391C13.5922 9.04999 13.1465 9.49607 12.8201 10.0618C12.4937 10.6279 12.3311 11.2417 12.3311 11.9041C12.3311 12.5668 12.494 13.1809 12.8201 13.7466C13.1462 14.3124 13.5922 14.7585 14.158 15.0845C14.7238 15.4109 15.3378 15.5735 16.0002 15.5735C16.6626 15.5735 17.277 15.4106 17.8428 15.0845ZM23.79 16.9117C23.2754 16.6113 22.8674 16.203 22.567 15.6887C22.2665 15.1738 22.1161 14.6106 22.1161 13.9991C22.1161 13.3876 22.2665 12.8244 22.567 12.3098C22.8674 11.7953 23.2754 11.3876 23.79 11.0868C24.3046 10.7866 24.8681 10.6359 25.4796 10.6359C26.0911 10.6359 26.654 10.7866 27.1689 11.0868C27.6831 11.3876 28.0911 11.7953 28.3919 12.3098C28.6921 12.8244 28.8428 13.3876 28.8428 13.9991C28.8428 14.6106 28.6921 15.1738 28.3919 15.6887C28.0911 16.203 27.6831 16.6113 27.1689 16.9117C26.654 17.2122 26.0911 17.3623 25.4796 17.3623C24.8681 17.3623 24.3046 17.2122 23.79 16.9117ZM27.926 24.747C27.926 24.1354 27.7753 23.5722 27.4748 23.0577C27.1743 22.5431 26.7663 22.1354 26.2518 21.8346C25.7372 21.5345 25.174 21.3837 24.5625 21.3837H23.645V19.5489H24.5622C25.5001 19.5489 26.3689 19.7812 27.1689 20.2449C27.9689 20.7089 28.6009 21.3409 29.0646 22.1409C29.5282 22.9409 29.7602 23.809 29.7602 24.747V25.6641H27.926V24.747ZM26.5574 15.0766C26.8575 14.7761 27.0082 14.4167 27.0082 13.9988C27.0082 13.571 26.8575 13.209 26.5574 12.9134C26.2566 12.6177 25.8975 12.4695 25.4796 12.4695C25.0614 12.4695 24.702 12.6177 24.4015 12.9134C24.101 13.209 23.9506 13.571 23.9506 13.9988C23.9506 14.417 24.101 14.7761 24.4015 15.0766C24.702 15.3774 25.0614 15.5278 25.4796 15.5278C25.8975 15.5278 26.2566 15.3777 26.5574 15.0766Z" fill="white"/>
</svg>
