        <svg
            width="42"
            height="48"
            viewBox="0 0 42 48"
            fill="none"
            xmlns="http://www.w3.org/2000/svg"
          >
            <path
              fill-rule="evenodd"
              clip-rule="evenodd"
              d="M22.4282 0.812787C21.5445 0.300564 20.4559 0.300563 19.5722 0.812787L1.71388 11.1648C0.830235 11.677 0.285889 12.6236 0.285889 13.6481V34.3521C0.285889 35.3765 0.830233 36.3231 1.71388 36.8353L19.5722 47.1873C20.4559 47.6995 21.5445 47.6995 22.4282 47.1873L40.2865 36.8353C41.1701 36.3231 41.7145 35.3765 41.7145 34.3521V13.6481C41.7145 12.6236 41.1701 11.677 40.2865 11.1648L22.4282 0.812787ZM22.0712 4.64483V43.3556L19.2152 44.7893V29.7351L13.5033 39.4127L11.7183 36.9037L17.0732 26.8675L12.0753 30.0934L9.21931 28.6597L14.9313 25.0755H3.15033L4.57831 22.208H14.9313L9.21931 18.9821L12.0753 17.19L17.0732 20.0574L11.7183 11.0965L13.1463 8.58757L19.2152 17.9068V2.9967L22.0712 4.64483ZM37.065 15.3978H25.9981V31.8857H36.708V29.0183H29.5681V25.4339H36.708V21.8496H29.2111V18.9821H37.065V15.3978Z"
              fill="white"
            />
          </svg>