<svg width="32" height="32" viewBox="0 0 32 32" fill="none" xmlns="http://www.w3.org/2000/svg">
<path d="M16.0006 17V25C16.0006 25.2652 15.8952 25.5196 15.7077 25.7071C15.5201 25.8946 15.2658 26 15.0006 26C14.7353 26 14.481 25.8946 14.2934 25.7071C14.1059 25.5196 14.0006 25.2652 14.0006 25V19.415L5.70806 27.7075C5.61515 27.8004 5.50485 27.8741 5.38345 27.9244C5.26206 27.9747 5.13195 28.0006 5.00056 28.0006C4.86916 28.0006 4.73905 27.9747 4.61766 27.9244C4.49627 27.8741 4.38597 27.8004 4.29306 27.7075C4.20015 27.6146 4.12645 27.5043 4.07616 27.3829C4.02588 27.2615 4 27.1314 4 27C4 26.8686 4.02588 26.7385 4.07616 26.6171C4.12645 26.4957 4.20015 26.3854 4.29306 26.2925L12.5856 18H7.00056C6.73534 18 6.48099 17.8946 6.29345 17.7071C6.10591 17.5196 6.00056 17.2652 6.00056 17C6.00056 16.7348 6.10591 16.4804 6.29345 16.2929C6.48099 16.1054 6.73534 16 7.00056 16H15.0006C15.2658 16 15.5201 16.1054 15.7077 16.2929C15.8952 16.4804 16.0006 16.7348 16.0006 17ZM26.0006 4H10.0006C9.47012 4 8.96142 4.21071 8.58634 4.58579C8.21127 4.96086 8.00056 5.46957 8.00056 6V12C8.00056 12.2652 8.10591 12.5196 8.29345 12.7071C8.48099 12.8946 8.73534 13 9.00056 13C9.26577 13 9.52013 12.8946 9.70766 12.7071C9.8952 12.5196 10.0006 12.2652 10.0006 12V6H26.0006V22H20.0006C19.7353 22 19.481 22.1054 19.2934 22.2929C19.1059 22.4804 19.0006 22.7348 19.0006 23C19.0006 23.2652 19.1059 23.5196 19.2934 23.7071C19.481 23.8946 19.7353 24 20.0006 24H26.0006C26.531 24 27.0397 23.7893 27.4148 23.4142C27.7898 23.0391 28.0006 22.5304 28.0006 22V6C28.0006 5.46957 27.7898 4.96086 27.4148 4.58579C27.0397 4.21071 26.531 4 26.0006 4Z" fill="white"/>
</svg>
