<svg width="40" height="40" viewBox="0 0 40 40" fill="none" xmlns="http://www.w3.org/2000/svg">
<circle cx="20" cy="20" r="20" fill="#12D3CF"/>
<g clip-path="url(#clip0_907_8702)">
<path d="M20 23.75H16.25V20L27.5 8.75L31.25 12.5L20 23.75Z" stroke="white" stroke-width="1.875" stroke-linecap="round" stroke-linejoin="round"/>
<path d="M24.6875 11.5625L28.4375 15.3125" stroke="white" stroke-width="1.875" stroke-linecap="round" stroke-linejoin="round"/>
<path d="M30.3125 20V29.375C30.3125 29.6236 30.2137 29.8621 30.0379 30.0379C29.8621 30.2137 29.6236 30.3125 29.375 30.3125H10.625C10.3764 30.3125 10.1379 30.2137 9.96209 30.0379C9.78627 29.8621 9.6875 29.6236 9.6875 29.375V10.625C9.6875 10.3764 9.78627 10.1379 9.96209 9.96209C10.1379 9.78627 10.3764 9.6875 10.625 9.6875H20" stroke="white" stroke-width="1.875" stroke-linecap="round" stroke-linejoin="round"/>
</g>
<defs>
<clipPath id="clip0_907_8702">
<rect width="30" height="30" fill="white" transform="translate(5 5)"/>
</clipPath>
</defs>
</svg>
