<svg width="32" height="32" viewBox="0 0 32 32" fill="none" xmlns="http://www.w3.org/2000/svg">
<g clip-path="url(#clip0_1083_1887)">
<path d="M16.2315 16.8213C18.3917 16.8213 20.1428 15.0704 20.1428 12.9106C20.1428 10.7508 18.3917 9 16.2315 9C14.0714 9 12.3203 10.7508 12.3203 12.9106C12.3203 15.0704 14.0714 16.8213 16.2315 16.8213Z" stroke="white" stroke-width="1.8" stroke-linecap="round" stroke-linejoin="round"/>
<path d="M8 23.0771C8.41114 21.3734 9.4269 19.8515 10.8806 18.7613C12.3343 17.671 14.1395 17.0771 16 17.0771C17.8605 17.0771 19.6657 17.671 21.1194 18.7613C22.5731 19.8515 23.5889 21.3734 24 23.0771" stroke="white" stroke-width="1.8" stroke-linecap="round" stroke-linejoin="round"/>
<path d="M3.98816 22.7063C3.37094 21.6433 2.89807 20.5029 2.58203 19.3151L4.92512 16.3832C4.89859 15.9349 4.89859 15.4855 4.92512 15.0373L2.58343 12.1054C2.89892 10.9174 3.37083 9.77653 3.98677 8.71277L7.71644 8.29392C8.01428 7.95842 8.33181 7.64094 8.66736 7.34315L9.08627 3.61545C10.1487 3.00254 11.2878 2.53351 12.4738 2.2207L15.4062 4.56343C15.8545 4.5369 16.304 4.5369 16.7523 4.56343L19.6846 2.2221C20.8728 2.53754 22.0139 3.00938 23.0778 3.62522L23.4967 7.35432C23.8323 7.6521 24.1498 7.96959 24.4476 8.30509L28.1759 8.72394C28.7931 9.78691 29.266 10.9273 29.582 12.1152L27.2389 15.0471C27.2655 15.4953 27.2655 15.9447 27.2389 16.3929L29.5806 19.3248C29.2673 20.5125 28.7978 21.6533 28.1843 22.7175L24.4546 23.1363C24.1568 23.4718 23.8392 23.7893 23.5037 24.0871L23.0848 27.8148C22.0216 28.4319 20.881 28.9047 19.693 29.2207L16.7607 26.878C16.3124 26.9045 15.8629 26.9045 15.4146 26.878L12.4822 29.2193C11.2944 28.9061 10.1534 28.4366 9.08906 27.8232L8.67016 24.0941C8.3346 23.7963 8.01707 23.4788 7.71924 23.1433L3.98816 22.7063Z" stroke="white" stroke-width="1.8" stroke-linecap="round" stroke-linejoin="round"/>
</g>
<defs>
<clipPath id="clip0_1083_1887">
<rect width="32" height="32" fill="white"/>
</clipPath>
</defs>
</svg>
