<svg width="32" height="32" viewBox="0 0 32 32" fill="none" xmlns="http://www.w3.org/2000/svg">
<path fill-rule="evenodd" clip-rule="evenodd" d="M3.98621 4.6665C3.98621 3.37776 5.0312 2.33398 6.31997 2.33398H11.6537C12.9425 2.33398 13.9862 3.37773 13.9862 4.6665V10.0003C13.9862 11.289 12.9425 12.334 11.6537 12.334H6.31997C5.03123 12.334 3.98621 11.289 3.98621 10.0003V4.6665ZM6.31997 4.33398C6.13622 4.33398 5.98621 4.48273 5.98621 4.6665V10.0003C5.98621 10.184 6.13621 10.334 6.31997 10.334H11.6537C11.8375 10.334 11.9862 10.184 11.9862 10.0003V4.6665C11.9862 4.48275 11.8375 4.33398 11.6537 4.33398H6.31997Z" fill="white"/>
<path fill-rule="evenodd" clip-rule="evenodd" d="M18.6544 21.9998C18.6544 20.711 19.6982 19.666 20.9869 19.666H26.3207C27.6094 19.666 28.6545 20.711 28.6545 21.9998V27.3335C28.6545 28.6223 27.6095 29.666 26.3207 29.666H20.9869C19.6982 29.666 18.6544 28.6223 18.6544 27.3335V21.9998ZM20.9869 21.666C20.8032 21.666 20.6544 21.816 20.6544 21.9998V27.3335C20.6544 27.5173 20.8032 27.666 20.9869 27.666H26.3207C26.5044 27.666 26.6545 27.5173 26.6545 27.3335V21.9998C26.6545 21.816 26.5045 21.666 26.3207 21.666H20.9869Z" fill="white"/>
<path fill-rule="evenodd" clip-rule="evenodd" d="M3.88865 25.3063C2.97738 24.395 2.97738 22.9188 3.88865 22.0074L7.65985 18.2362C8.57111 17.3249 10.0486 17.3249 10.9597 18.2362L14.7309 22.0074C15.6422 22.9186 15.6422 24.3949 14.7309 25.3063L10.9597 29.0775C10.0484 29.9887 8.57095 29.9887 7.65985 29.0775L3.88865 25.3063ZM5.30366 23.4213C5.17366 23.5513 5.17366 23.7625 5.30366 23.8925L9.07486 27.6637C9.20486 27.7937 9.4161 27.7937 9.54612 27.6637L13.3173 23.8925C13.4473 23.7625 13.4473 23.5513 13.3173 23.4213L9.54612 19.6501C9.41612 19.5201 9.20487 19.5201 9.07486 19.6501L5.30366 23.4213Z" fill="white"/>
<path fill-rule="evenodd" clip-rule="evenodd" d="M23.6544 2.33398C24.2057 2.33398 24.6544 2.78147 24.6544 3.33398V11.334C24.6544 11.8852 24.2057 12.334 23.6544 12.334C23.1019 12.334 22.6544 11.8852 22.6544 11.334V3.33398C22.6544 2.78147 23.1019 2.33398 23.6544 2.33398Z" fill="white"/>
<path fill-rule="evenodd" clip-rule="evenodd" d="M18.6544 7.33398C18.6544 6.78147 19.1019 6.33398 19.6544 6.33398H27.6544C28.2057 6.33398 28.6544 6.78147 28.6544 7.33398C28.6544 7.88525 28.2057 8.33398 27.6544 8.33398H19.6544C19.1019 8.33398 18.6544 7.88525 18.6544 7.33398Z" fill="white"/>
</svg>
