<svg width="32" height="32" viewBox="0 0 32 32" fill="none" xmlns="http://www.w3.org/2000/svg">
<path d="M27 5H5C4.46957 5 3.96086 5.21071 3.58579 5.58579C3.21071 5.96086 3 6.46957 3 7V25C3 25.5304 3.21071 26.0391 3.58579 26.4142C3.96086 26.7893 4.46957 27 5 27H27C27.5304 27 28.0391 26.7893 28.4142 26.4142C28.7893 26.0391 29 25.5304 29 25V7C29 6.46957 28.7893 5.96086 28.4142 5.58579C28.0391 5.21071 27.5304 5 27 5ZM27 25H5V7H27V25ZM22 11C22 12.5913 21.3679 14.1174 20.2426 15.2426C19.1174 16.3679 17.5913 17 16 17C14.4087 17 12.8826 16.3679 11.7574 15.2426C10.6321 14.1174 10 12.5913 10 11C10 10.7348 10.1054 10.4804 10.2929 10.2929C10.4804 10.1054 10.7348 10 11 10C11.2652 10 11.5196 10.1054 11.7071 10.2929C11.8946 10.4804 12 10.7348 12 11C12 12.0609 12.4214 13.0783 13.1716 13.8284C13.9217 14.5786 14.9391 15 16 15C17.0609 15 18.0783 14.5786 18.8284 13.8284C19.5786 13.0783 20 12.0609 20 11C20 10.7348 20.1054 10.4804 20.2929 10.2929C20.4804 10.1054 20.7348 10 21 10C21.2652 10 21.5196 10.1054 21.7071 10.2929C21.8946 10.4804 22 10.7348 22 11Z" fill="white"/>
</svg>
