<svg width="32" height="32" viewBox="0 0 32 32" fill="none" xmlns="http://www.w3.org/2000/svg">
<g clip-path="url(#clip0_1083_1907)">
<path d="M28 25V26C28 27.0609 27.5786 28.0783 26.8284 28.8284C26.0783 29.5786 25.0609 30 24 30H17" stroke="white" stroke-width="1.2" stroke-linecap="round" stroke-linejoin="round"/>
<path d="M28 16H24C23.4696 16 22.9609 16.2107 22.5858 16.5858C22.2107 16.9609 22 17.4696 22 18V23C22 23.5304 22.2107 24.0391 22.5858 24.4142C22.9609 24.7893 23.4696 25 24 25H28V16ZM28 16C28 14.4241 27.6896 12.8637 27.0866 11.4078C26.4835 9.95189 25.5996 8.62902 24.4853 7.51472C23.371 6.40042 22.0481 5.5165 20.5922 4.91345C19.1363 4.31039 17.5759 4 16 4C14.4241 4 12.8637 4.31039 11.4078 4.91345C9.95189 5.5165 8.62902 6.40042 7.51472 7.51472C6.40042 8.62902 5.5165 9.95189 4.91345 11.4078C4.31039 12.8637 4 14.4241 4 16M4 16V23C4 23.5304 4.21071 24.0391 4.58579 24.4142C4.96086 24.7893 5.46957 25 6 25H8C8.53043 25 9.03914 24.7893 9.41421 24.4142C9.78929 24.0391 10 23.5304 10 23V18C10 17.4696 9.78929 16.9609 9.41421 16.5858C9.03914 16.2107 8.53043 16 8 16H4Z" stroke="white" stroke-width="1.2" stroke-linecap="round" stroke-linejoin="round"/>
</g>
<defs>
<clipPath id="clip0_1083_1907">
<rect width="32" height="32" fill="white"/>
</clipPath>
</defs>
</svg>
