<svg width="138" height="35" viewBox="0 0 138 35" fill="none" xmlns="http://www.w3.org/2000/svg">
<path d="M1.78414 16.9394C2.95035 17.1359 4.05679 16.3605 4.2568 15.2071L4.25701 15.2059L4.25903 15.195C4.26178 15.1802 4.26674 15.154 4.2741 15.1173C4.28882 15.0437 4.31307 14.9279 4.34831 14.776C4.4189 14.4717 4.53287 14.0255 4.70138 13.4851C5.04082 12.3967 5.58912 10.9667 6.42336 9.55601C8.0905 6.73682 10.7171 4.24237 15.0061 4.24237C19.4704 4.24237 22.9219 6.87099 27.0673 10.143L27.2883 10.3175C29.4559 12.0294 31.8383 13.9109 34.5855 15.2348C36.742 16.274 39.1233 16.9695 41.802 16.9695C44.4689 16.9695 46.841 16.2801 48.99 15.2485C51.7493 13.924 54.1407 12.0353 56.3158 10.3175L56.5368 10.143C60.6821 6.87099 64.1337 4.24237 68.598 4.24237C73.0623 4.24237 76.5139 6.87099 80.6592 10.143L80.8801 10.3175C83.0759 12.0516 85.4919 13.9597 88.2843 15.2859C90.4126 16.2967 92.7594 16.9695 95.3939 16.9695C98.0167 16.9695 100.354 16.3027 102.475 15.2994C105.28 13.9727 107.705 12.0575 109.908 10.3174L110.129 10.143C114.274 6.87099 117.726 4.24237 122.19 4.24237C126.512 4.24237 129.351 6.77463 131.225 9.63781C132.158 11.0627 132.801 12.5039 133.211 13.5976C133.415 14.1411 133.558 14.5899 133.649 14.8961C133.694 15.049 133.726 15.1656 133.745 15.24C133.755 15.2771 133.762 15.3037 133.765 15.3188L133.768 15.3292L133.769 15.3315C134.039 16.4701 135.19 17.1795 136.342 16.9142C137.495 16.6486 138.212 15.5083 137.944 14.3673L135.856 14.8483C137.944 14.3673 137.943 14.3656 137.943 14.3656L137.943 14.3636L137.942 14.3586L137.938 14.3452L137.928 14.3047C137.92 14.2717 137.909 14.2268 137.894 14.1707C137.865 14.0587 137.822 13.9019 137.764 13.7067C137.649 13.3169 137.475 12.7714 137.231 12.1217C136.746 10.8291 135.974 9.08855 134.824 7.33166C132.533 3.83129 128.54 0 122.19 0C116.099 0 111.545 3.59623 107.676 6.65202L107.455 6.8265C103.31 10.0985 99.8582 12.7271 95.3939 12.7271C90.9296 12.7271 87.4781 10.0985 83.3327 6.8265L83.1118 6.65202C79.2426 3.59623 74.6891 0 68.598 0C62.5069 0 57.9534 3.59623 54.0842 6.65201L53.8632 6.8265C49.7179 10.0985 46.2663 12.7271 41.802 12.7271C37.3377 12.7271 33.8862 10.0985 29.7408 6.8265L29.5199 6.65201C25.6507 3.59623 21.0971 0 15.0061 0C8.62333 0 4.81892 3.8691 2.72296 7.41345C1.67565 9.1845 1.00938 10.9364 0.604638 12.2342C0.401057 12.887 0.260527 13.4351 0.169648 13.8268C0.124151 14.0229 0.090928 14.1806 0.0683524 14.2935C0.0570601 14.3499 0.0484177 14.3952 0.0422238 14.4286L0.0347393 14.4696L0.0323238 14.4832L0.0314395 14.4883L0.031077 14.4904C0.031077 14.4904 0.0307674 14.4922 2.14402 14.8483L0.0307673 14.4922C-0.167987 15.6471 0.617025 16.7427 1.78414 16.9394Z" fill="#12D3CF"/>
<path d="M4.2568 33.2372C4.05678 34.3905 2.95035 35.1659 1.78414 34.9694C0.617025 34.7728 -0.167987 33.6771 0.0307673 32.5222L2.14402 32.8783C0.0307674 32.5222 0.031077 32.5204 0.031077 32.5204L0.0314395 32.5184L0.0323238 32.5133L0.0347393 32.4997L0.0422238 32.4586C0.0484177 32.4253 0.0570601 32.38 0.0683524 32.3235C0.090928 32.2107 0.124151 32.053 0.169648 31.8569C0.260527 31.4652 0.401057 30.9171 0.604638 30.2643C1.00938 28.9664 1.67565 27.2146 2.72296 25.4435C4.81892 21.8992 8.62333 18.0301 15.0061 18.0301C21.0971 18.0301 25.6507 21.6263 29.5199 24.6821L29.7408 24.8566C33.8862 28.1285 37.3377 30.7572 41.802 30.7572C46.2663 30.7572 49.7179 28.1285 53.8632 24.8566L54.0842 24.6821C57.9534 21.6263 62.5069 18.0301 68.598 18.0301C74.6891 18.0301 79.2426 21.6263 83.1118 24.6821L83.3327 24.8566C87.4781 28.1285 90.9296 30.7572 95.3939 30.7572C99.8582 30.7572 103.31 28.1285 107.455 24.8566L107.676 24.6821C111.545 21.6263 116.099 18.0301 122.19 18.0301C128.54 18.0301 132.533 21.8613 134.824 25.3617C135.974 27.1186 136.746 28.8592 137.231 30.1518C137.475 30.8015 137.649 31.347 137.764 31.7368C137.822 31.9319 137.865 32.0887 137.894 32.2008C137.909 32.2568 137.92 32.3018 137.928 32.3348L137.938 32.3753L137.942 32.3887L137.943 32.3936L137.943 32.3957C137.943 32.3957 137.944 32.3974 135.856 32.8783L137.944 32.3974C138.212 33.5384 137.495 34.6787 136.342 34.9443C135.19 35.2096 134.039 34.5019 133.769 33.3632L133.769 33.3615L133.768 33.3593L133.765 33.3489C133.762 33.3337 133.755 33.3072 133.745 33.27C133.726 33.1957 133.694 33.079 133.649 32.9261C133.558 32.6199 133.415 32.1711 133.211 31.6277C132.801 30.534 132.158 29.0927 131.225 27.6679C129.351 24.8047 126.512 22.2724 122.19 22.2724C117.726 22.2724 114.274 24.9011 110.129 28.173L109.908 28.3475C107.705 30.0875 105.279 32.0027 102.475 33.3295C100.354 34.3328 98.0167 34.9995 95.3939 34.9995C92.7594 34.9995 90.4126 34.3268 88.2843 33.316C85.4919 31.9898 83.0759 30.0816 80.8801 28.3475L80.6592 28.173C76.5139 24.9011 73.0623 22.2724 68.598 22.2724C64.1337 22.2724 60.6821 24.9011 56.5368 28.173L56.3158 28.3475C54.1407 30.0654 51.7493 31.954 48.99 33.2785C46.841 34.3101 44.4689 34.9995 41.802 34.9995C39.1233 34.9995 36.742 34.304 34.5855 33.2648C31.8383 31.941 29.4559 30.0594 27.2883 28.3475L27.0673 28.173C22.9219 24.9011 19.4704 22.2724 15.0061 22.2724C10.7171 22.2724 8.0905 24.7669 6.42336 27.5861C5.58912 28.9968 5.04082 30.4267 4.70138 31.5152C4.53287 32.0555 4.4189 32.5018 4.34831 32.8061C4.31307 32.958 4.28882 33.0737 4.2741 33.1473C4.26674 33.1841 4.26178 33.2102 4.25903 33.225L4.25701 33.2359L4.2568 33.2372Z" fill="#12D3CF"/>
</svg>
