<svg width="394" height="107" viewBox="0 0 394 107" fill="none" xmlns="http://www.w3.org/2000/svg">
<path d="M1.78414 78.9394C2.95035 79.1359 4.05679 78.3605 4.2568 77.2071L4.25701 77.2059L4.25903 77.195C4.26178 77.1802 4.26674 77.154 4.2741 77.1173C4.28882 77.0437 4.31307 76.9279 4.34831 76.776C4.4189 76.4717 4.53287 76.0255 4.70138 75.4851C5.04082 74.3967 5.58912 72.9667 6.42336 71.556C8.0905 68.7368 10.7171 66.2424 15.0061 66.2424C19.4704 66.2424 22.9219 68.871 27.0673 72.143L27.2883 72.3175C29.4559 74.0294 31.8383 75.9109 34.5855 77.2348C36.742 78.274 39.1233 78.9695 41.802 78.9695C44.4689 78.9695 46.841 78.2801 48.99 77.2485C51.7493 75.924 54.1407 74.0353 56.3158 72.3175L56.5368 72.143C60.6821 68.871 64.1337 66.2424 68.598 66.2424C73.0623 66.2424 76.5139 68.871 80.6592 72.143L80.8801 72.3175C83.0759 74.0516 85.4919 75.9597 88.2843 77.2859C90.4126 78.2967 92.7594 78.9695 95.3939 78.9695C98.0167 78.9695 100.354 78.3027 102.475 77.2994C105.28 75.9727 107.705 74.0575 109.908 72.3174L110.129 72.143C114.274 68.871 117.726 66.2424 122.19 66.2424C126.512 66.2424 129.351 68.7746 131.225 71.6378C132.158 73.0627 132.801 74.5039 133.211 75.5976C133.415 76.1411 133.558 76.5899 133.649 76.8961C133.694 77.049 133.726 77.1656 133.745 77.24C133.755 77.2771 133.762 77.3037 133.765 77.3188L133.768 77.3292L133.769 77.3315C134.039 78.4701 135.19 79.1795 136.342 78.9142C137.495 78.6486 138.212 77.5083 137.944 76.3673L135.856 76.8483C137.944 76.3673 137.943 76.3656 137.943 76.3656L137.943 76.3636L137.942 76.3586L137.938 76.3452L137.928 76.3047C137.92 76.2717 137.909 76.2268 137.894 76.1707C137.865 76.0587 137.822 75.9019 137.764 75.7067C137.649 75.3169 137.475 74.7714 137.231 74.1217C136.746 72.8291 135.974 71.0886 134.824 69.3317C132.533 65.8313 128.54 62 122.19 62C116.099 62 111.545 65.5962 107.676 68.652L107.455 68.8265C103.31 72.0985 99.8582 74.7271 95.3939 74.7271C90.9296 74.7271 87.4781 72.0985 83.3327 68.8265L83.1118 68.652C79.2426 65.5962 74.6891 62 68.598 62C62.5069 62 57.9534 65.5962 54.0842 68.652L53.8632 68.8265C49.7179 72.0985 46.2663 74.7271 41.802 74.7271C37.3377 74.7271 33.8862 72.0985 29.7408 68.8265L29.5199 68.652C25.6507 65.5962 21.0971 62 15.0061 62C8.62333 62 4.81892 65.8691 2.72296 69.4135C1.67565 71.1845 1.00938 72.9364 0.604638 74.2342C0.401057 74.887 0.260527 75.4351 0.169648 75.8268C0.124151 76.0229 0.090928 76.1806 0.0683524 76.2935C0.0570601 76.3499 0.0484178 76.3952 0.0422238 76.4286L0.0347393 76.4696L0.0323238 76.4832L0.0314395 76.4883L0.031077 76.4904C0.031077 76.4904 0.0307674 76.4922 2.14402 76.8483L0.0307673 76.4922C-0.167987 77.6471 0.617025 78.7427 1.78414 78.9394Z" fill="#F6921E"/>
<path d="M4.2568 95.2372C4.05678 96.3905 2.95035 97.1659 1.78414 96.9694C0.617025 96.7728 -0.167987 95.6771 0.0307673 94.5222L2.14402 94.8783C0.0307674 94.5222 0.031077 94.5204 0.031077 94.5204L0.0314395 94.5184L0.0323238 94.5133L0.0347393 94.4997L0.0422238 94.4586C0.0484178 94.4253 0.0570601 94.38 0.0683524 94.3235C0.090928 94.2107 0.124151 94.053 0.169648 93.8569C0.260527 93.4652 0.401057 92.9171 0.604638 92.2643C1.00938 90.9664 1.67565 89.2146 2.72296 87.4435C4.81892 83.8992 8.62333 80.0301 15.0061 80.0301C21.0971 80.0301 25.6507 83.6263 29.5199 86.6821L29.7408 86.8566C33.8862 90.1285 37.3377 92.7572 41.802 92.7572C46.2663 92.7572 49.7179 90.1285 53.8632 86.8566L54.0842 86.6821C57.9534 83.6263 62.5069 80.0301 68.598 80.0301C74.6891 80.0301 79.2426 83.6263 83.1118 86.6821L83.3327 86.8566C87.4781 90.1285 90.9296 92.7572 95.3939 92.7572C99.8582 92.7572 103.31 90.1285 107.455 86.8566L107.676 86.6821C111.545 83.6263 116.099 80.0301 122.19 80.0301C128.54 80.0301 132.533 83.8613 134.824 87.3617C135.974 89.1186 136.746 90.8592 137.231 92.1518C137.475 92.8015 137.649 93.347 137.764 93.7368C137.822 93.9319 137.865 94.0887 137.894 94.2008C137.909 94.2568 137.92 94.3018 137.928 94.3348L137.938 94.3753L137.942 94.3887L137.943 94.3936L137.943 94.3957C137.943 94.3957 137.944 94.3974 135.856 94.8783L137.944 94.3974C138.212 95.5384 137.495 96.6787 136.342 96.9443C135.19 97.2096 134.039 96.5019 133.769 95.3632L133.769 95.3615L133.768 95.3593L133.765 95.3489C133.762 95.3337 133.755 95.3072 133.745 95.27C133.726 95.1957 133.694 95.079 133.649 94.9261C133.558 94.6199 133.415 94.1711 133.211 93.6277C132.801 92.534 132.158 91.0927 131.225 89.6679C129.351 86.8047 126.512 84.2724 122.19 84.2724C117.726 84.2724 114.274 86.9011 110.129 90.173L109.908 90.3475C107.705 92.0875 105.28 94.0027 102.475 95.3295C100.354 96.3328 98.0167 96.9995 95.3939 96.9995C92.7594 96.9995 90.4126 96.3268 88.2843 95.316C85.4919 93.9898 83.0759 92.0816 80.8801 90.3475L80.6592 90.173C76.5139 86.9011 73.0623 84.2724 68.598 84.2724C64.1337 84.2724 60.6821 86.9011 56.5368 90.173L56.3158 90.3475C54.1407 92.0654 51.7493 93.954 48.99 95.2785C46.841 96.3101 44.4689 96.9995 41.802 96.9995C39.1233 96.9995 36.742 96.304 34.5855 95.2648C31.8383 93.941 29.4559 92.0594 27.2883 90.3475L27.0673 90.173C22.9219 86.9011 19.4704 84.2724 15.0061 84.2724C10.7171 84.2724 8.0905 86.7669 6.42336 89.5861C5.58912 90.9968 5.04082 92.4267 4.70138 93.5152C4.53287 94.0555 4.4189 94.5018 4.34831 94.8061C4.31307 94.958 4.28882 95.0737 4.2741 95.1473C4.26674 95.1841 4.26178 95.2102 4.25903 95.225L4.25701 95.2359L4.2568 95.2372Z" fill="#F6921E"/>
<path d="M250 107C250 107 286.697 44.8821 319.233 43.3312C329.89 42.8232 333.071 48.5779 333.566 54.5214C337.164 34.1182 346.891 -4.01906 368.9 0.344658C395.49 5.61662 393.984 27.1099 393.984 27.1099V75.3684V102C393.984 104.761 391.746 107 388.984 107H250Z" fill="#F6921E"/>
<path fill-rule="evenodd" clip-rule="evenodd" d="M206 37L196 55H206H216L206 37ZM206 40.2L198.667 53.4H213.333L206 40.2Z" fill="#ED3340"/>
<path fill-rule="evenodd" clip-rule="evenodd" d="M206 61L196 79H216L206 61ZM206 64.2L198.667 77.4H213.333L206 64.2Z" fill="#ED3340"/>
<path fill-rule="evenodd" clip-rule="evenodd" d="M206 85L216 103H196L206 85ZM198.667 101.4L206 88.2L213.333 101.4H198.667Z" fill="#ED3340"/>
<path fill-rule="evenodd" clip-rule="evenodd" d="M206 61L196 79H216L206 61ZM206 64.2L198.667 77.4H213.333L206 64.2Z" fill="#001239"/>
</svg>
